<?xml version="1.0" standalone="no"?>
<!DOCTYPE svg PUBLIC "-//W3C//DTD SVG 20010904//EN"
 "http://www.w3.org/TR/2001/REC-SVG-20010904/DTD/svg10.dtd">
<svg version="1.0" xmlns="http://www.w3.org/2000/svg"
 width="300.000000pt" height="300.000000pt" viewBox="0 0 300.000000 300.000000"
 preserveAspectRatio="xMidYMid meet">

<g transform="translate(0.000000,300.000000) scale(0.100000,-0.100000)"
fill="#000000" stroke="none">
<path d="M726 2417 l-559 -302 96 -3 95 -3 466 251 467 252 670 -362 671 -361
96 3 97 3 -767 413 c-421 226 -768 412 -769 411 -2 0 -256 -136 -563 -302z"/>
<path d="M1310 1791 l0 -779 95 51 95 51 2 281 3 280 80 0 80 0 3 -233 c2
-181 5 -233 15 -229 6 3 53 27 102 54 l90 50 3 347 2 347 114 -61 c118 -63
176 -77 176 -42 0 10 -6 24 -12 31 -8 9 -8 11 -2 8 7 -4 15 0 18 9 3 8 2 12
-3 9 -5 -3 -13 0 -17 6 -4 8 -3 9 4 5 16 -10 15 26 0 43 -8 9 -8 11 -2 8 7 -4
15 0 18 9 3 8 2 12 -3 9 -5 -3 -13 0 -17 6 -4 8 -3 9 4 5 8 -5 12 2 12 21 0
28 -13 36 -247 165 l-248 136 -3 -244 -2 -244 -85 0 -85 0 -2 292 -3 291 -89
49 c-49 26 -91 48 -93 48 -1 0 -3 -351 -3 -779z"/>
<path d="M649 2237 l-227 -122 139 -3 139 -3 0 -394 0 -394 92 -50 c51 -27 94
-48 95 -47 7 7 2 1121 -4 1127 -5 4 -110 -48 -234 -114z"/>
<path d="M2175 2021 c-3 -5 -2 -12 3 -15 5 -3 9 1 9 9 0 17 -3 19 -12 6z"/>
<path d="M2175 1941 c-3 -5 -2 -12 3 -15 5 -3 9 1 9 9 0 17 -3 19 -12 6z"/>
<path d="M2167 1733 c-9 -2 -14 -9 -10 -15 4 -7 1 -9 -9 -6 -8 4 -32 -4 -54
-16 l-39 -22 -3 -127 c-1 -70 0 -127 3 -127 3 0 28 12 56 26 37 18 49 29 45
41 -5 13 -4 14 9 3 13 -11 14 -10 9 5 -5 11 -4 16 3 12 5 -3 10 0 10 8 0 11
-4 12 -13 4 -8 -7 -14 -6 -20 2 -4 7 -3 9 3 6 6 -4 14 0 17 9 3 8 2 12 -3 9
-5 -3 -13 0 -17 6 -4 8 -3 9 4 5 7 -4 12 -1 12 8 0 27 -2 31 -13 28 -7 -2 -6
2 1 11 9 10 9 17 -1 27 -9 10 -9 11 1 6 15 -9 17 30 2 39 -6 4 -8 11 -4 16 3
5 10 7 15 3 5 -3 7 -9 4 -14 -3 -5 -2 -11 3 -14 4 -2 8 6 8 19 0 13 -4 21 -8
19 -12 -8 -9 11 4 24 7 7 10 11 8 11 -3 -1 -13 -3 -23 -6z"/>
<path d="M2173 1615 c0 -8 4 -12 9 -9 5 3 6 10 3 15 -9 13 -12 11 -12 -6z"/>
<path d="M1775 1235 c-259 -140 -476 -255 -484 -255 -10 0 -462 238 -583 307
-5 2 -8 -20 -8 -49 l0 -53 295 -159 295 -158 68 35 c37 20 254 136 482 259
l415 224 3 52 c2 29 -1 52 -5 51 -4 0 -219 -115 -478 -254z"/>
<path d="M1606 771 c-3 -5 5 -12 18 -15 13 -3 32 -9 43 -13 11 -4 8 2 -9 15
-28 24 -44 27 -52 13z"/>
<path d="M1383 723 c-12 -2 -36 -17 -53 -33 -25 -23 -30 -36 -30 -73 0 -107
124 -155 202 -77 36 36 39 103 8 143 -17 22 -81 51 -100 46 -3 -1 -15 -4 -27
-6z m88 -49 c30 -32 32 -93 5 -123 -21 -23 -74 -28 -106 -11 -29 15 -45 75
-30 111 23 55 89 67 131 23z"/>
<path d="M2115 715 c-63 -22 -80 -52 -76 -125 4 -56 89 -100 166 -86 35 7 35
7 35 61 0 46 -3 55 -18 55 -14 0 -17 -7 -14 -45 l4 -45 -45 0 c-38 0 -49 5
-71 31 -28 33 -32 55 -15 92 16 35 51 51 98 44 31 -4 41 -2 41 9 0 8 -6 14
-12 14 -7 0 -22 2 -33 5 -11 3 -38 -2 -60 -10z"/>
<path d="M2450 720 c-50 -12 -90 -61 -90 -109 0 -75 70 -121 165 -107 l46 7
-3 52 c-2 40 -7 53 -20 55 -15 3 -18 -4 -18 -42 l0 -46 -40 0 c-85 0 -124 93
-63 149 22 19 34 22 70 18 30 -3 43 -1 43 8 0 11 -34 27 -50 24 -3 -1 -21 -5
-40 -9z"/>
<path d="M95 615 c0 -98 1 -105 20 -105 19 0 20 6 17 95 -3 89 -2 95 17 95 22
0 51 -25 51 -45 0 -7 -12 -24 -27 -36 l-28 -22 30 7 c41 10 55 24 55 56 0 40
-28 60 -86 60 l-49 0 0 -105z"/>
<path d="M270 615 c0 -98 1 -105 20 -105 17 0 20 7 20 50 l0 50 55 0 55 0 0
-50 c0 -41 3 -50 18 -50 15 0 17 12 17 105 0 98 -1 105 -20 105 -18 0 -20 -5
-17 -45 l4 -45 -56 0 -56 0 0 45 c0 38 -3 45 -20 45 -19 0 -20 -7 -20 -105z"/>
<path d="M543 615 c-35 -90 -39 -105 -24 -105 12 0 20 12 27 38 8 34 12 37 50
40 35 3 42 0 52 -23 7 -14 12 -32 12 -40 0 -9 10 -15 24 -15 l24 0 -38 88
c-20 48 -40 95 -43 105 -4 9 -14 17 -24 17 -13 0 -29 -27 -60 -105z m74 30
c11 -34 11 -35 -18 -35 -33 0 -32 -2 -18 39 14 40 23 39 36 -4z"/>
<path d="M745 615 c0 -90 2 -105 16 -105 14 0 15 11 11 75 -3 45 -1 75 5 75 5
0 38 -36 72 -80 34 -44 66 -80 71 -80 6 0 10 41 10 94 0 52 3 101 6 110 4 11
0 16 -12 16 -17 0 -19 -8 -16 -82 2 -51 0 -79 -6 -73 -5 6 -35 43 -66 83 -81
102 -91 98 -91 -33z"/>
<path d="M1068 615 c3 -93 5 -105 21 -105 16 0 17 7 13 50 l-5 50 63 0 62 0
-4 -50 c-3 -45 -1 -50 17 -50 19 0 20 7 20 105 0 98 -1 105 -20 105 -18 0 -20
-5 -17 -46 l4 -45 -58 3 -59 3 2 43 c2 37 -1 42 -20 42 -21 0 -22 -3 -19 -105z"/>
<path d="M1603 615 c-35 -90 -39 -105 -24 -105 12 0 20 12 27 38 9 36 10 37
54 37 44 0 45 -1 54 -37 7 -30 14 -38 32 -38 21 0 20 3 -21 103 -57 140 -67
140 -122 2z m70 48 c2 -10 8 -26 12 -35 6 -15 2 -18 -25 -18 -27 0 -31 3 -25
18 4 9 10 25 12 35 3 9 9 17 13 17 4 0 10 -8 13 -17z"/>
<path d="M1805 615 c0 -92 2 -105 17 -105 14 0 18 12 20 77 l3 76 60 -76 c33
-42 65 -79 72 -81 10 -4 13 16 13 88 0 52 3 101 6 110 4 11 0 16 -12 16 -17 0
-19 -8 -16 -82 l4 -83 -64 82 c-40 53 -70 82 -83 82 -19 1 -20 -5 -20 -104z"/>
<path d="M2615 615 c0 -98 1 -105 20 -105 19 0 20 7 20 105 0 98 -1 105 -20
105 -19 0 -20 -7 -20 -105z"/>
<path d="M2757 662 c-10 -31 -28 -78 -41 -104 l-23 -48 24 0 c13 0 22 3 19 8
-2 4 2 22 9 40 12 28 19 32 53 32 36 0 40 -2 52 -40 11 -32 18 -40 38 -40 18
0 22 3 14 13 -6 6 -27 54 -47 105 -31 76 -41 92 -59 92 -17 0 -24 -11 -39 -58z
m46 -50 c-34 -5 -37 1 -22 45 l12 38 17 -40 17 -40 -24 -3z"/>
<path d="M1782 429 c-13 -5 -20 -14 -17 -20 4 -6 -1 -31 -10 -55 -9 -25 -15
-48 -12 -50 3 -3 8 4 12 15 8 27 35 27 42 1 3 -11 9 -20 13 -20 5 0 -1 23 -11
51 -19 49 -19 53 -3 70 19 21 18 22 -14 8z m3 -69 c3 -5 1 -10 -4 -10 -6 0
-11 5 -11 10 0 6 2 10 4 10 3 0 8 -4 11 -10z"/>
<path d="M1600 405 c0 -8 -6 -15 -13 -15 -16 0 -39 -53 -31 -74 8 -21 53 -21
61 0 3 10 1 30 -4 45 -7 17 -7 31 -2 35 12 7 12 24 -1 24 -5 0 -10 -7 -10 -15z
m8 -68 c4 -20 -25 -34 -40 -19 -15 15 -1 44 19 40 10 -2 19 -11 21 -21z"/>
<path d="M815 397 c-32 -19 -45 -40 -42 -67 1 -19 9 -26 30 -28 15 -2 27 1 27
6 0 6 -10 8 -22 5 l-23 -6 24 26 c12 14 20 31 16 37 -4 6 -1 17 5 25 15 18 12
18 -15 2z m-5 -46 c0 -12 -20 -25 -27 -18 -7 7 6 27 18 27 5 0 9 -4 9 -9z"/>
<path d="M611 350 c1 -41 3 -48 8 -26 l6 29 14 -26 c8 -15 18 -27 23 -27 4 0
-1 14 -12 32 -18 30 -18 34 -3 50 9 10 11 18 5 18 -6 0 -14 -5 -18 -11 -4 -8
-9 -7 -15 2 -5 9 -8 -7 -8 -41z"/>
<path d="M1067 392 c6 -4 13 -28 16 -52 l4 -45 1 47 c1 26 7 49 15 51 6 3 -1
6 -18 6 -17 0 -25 -3 -18 -7z"/>
<path d="M1467 392 c6 -4 13 -28 16 -52 l4 -45 1 47 c1 26 7 49 15 51 6 3 -1
6 -18 6 -17 0 -25 -3 -18 -7z"/>
<path d="M2051 390 c0 -8 8 -33 18 -54 l17 -39 18 47 c10 26 16 49 13 52 -3 3
-11 -12 -18 -33 l-12 -38 -18 40 c-10 22 -18 33 -18 25z"/>
<path d="M2163 345 c0 -27 2 -38 4 -22 2 15 2 37 0 50 -2 12 -4 0 -4 -28z"/>
<path d="M2230 371 c-15 -29 -12 -55 8 -72 15 -13 20 -13 30 -3 17 19 15 23
-10 17 l-23 -6 21 24 c22 26 21 59 -1 59 -8 0 -19 -9 -25 -19z m20 -26 c-7 -9
-15 -13 -17 -11 -7 7 7 26 19 26 6 0 6 -6 -2 -15z"/>
<path d="M2330 345 c0 -25 5 -45 10 -45 6 0 10 20 10 45 0 25 -4 45 -10 45 -5
0 -10 -20 -10 -45z"/>
<path d="M887 363 c-11 -10 -8 -63 3 -63 6 0 10 14 10 31 0 39 22 34 31 -7 5
-22 7 -24 8 -7 0 12 -2 28 -5 37 -6 16 -35 22 -47 9z"/>
<path d="M1162 358 c-16 -16 -15 -29 7 -55 19 -23 38 -32 26 -13 -3 6 3 10 14
10 16 0 21 6 21 29 0 38 -41 56 -68 29z m45 -9 c15 -15 5 -39 -17 -39 -22 0
-32 24 -17 39 6 6 14 11 17 11 3 0 11 -5 17 -11z"/>
<path d="M1274 356 c-12 -31 0 -51 31 -51 27 0 30 3 30 30 0 25 -4 30 -28 33
-17 2 -29 -2 -33 -12z m54 -19 c4 -20 -25 -34 -40 -19 -15 15 -1 44 19 40 10
-2 19 -11 21 -21z"/>
<path d="M1861 333 l2 -38 7 35 c6 35 13 30 23 -15 3 -11 5 -5 6 15 1 37 16
32 24 -10 3 -17 5 -13 4 10 -2 32 -5 35 -34 38 -32 3 -33 2 -32 -35z"/>
<path d="M712 330 c0 -19 2 -27 5 -17 2 9 2 25 0 35 -3 9 -5 1 -5 -18z"/>
</g>
</svg>
